<svg width="30" height="30" viewBox="0 0 30 30" fill="none" xmlns="http://www.w3.org/2000/svg">
<path fill-rule="evenodd" clip-rule="evenodd" d="M14.104 0.023277C9.68115 0.282719 5.60223 2.49105 2.9362 6.06953C1.42221 8.10168 0.440234 10.5241 0.115442 13.0281C0.0150292 13.8023 0 14.0587 0 14.9994C0 15.9401 0.0150292 16.1965 0.115442 16.9707C0.698848 21.4684 3.34039 25.4914 7.26297 27.8562C12.2412 30.8574 18.5672 30.6959 23.3801 27.4447C25.1801 26.2288 26.7026 24.6381 27.8189 22.8074C29.0453 20.796 29.7373 18.6766 29.9644 16.2363C30.0119 15.7268 30.0119 14.272 29.9644 13.7625C29.6253 10.1189 28.1628 6.96084 25.6412 4.42678C23.0065 1.77913 19.5734 0.236316 15.8386 0.0215956C15.4455 -0.000997386 14.5024 -8.90302e-05 14.104 0.023277ZM15.7494 8.69714C16.721 8.74393 17.0725 8.78384 17.5198 8.89819C18.5419 9.15949 19.3229 9.73402 19.8054 10.5794C20.2524 11.3628 20.3403 12.3979 20.0388 13.3305C19.842 13.9394 19.4851 14.4706 18.9834 14.9011C18.8468 15.0183 18.7293 15.1326 18.7222 15.1551C18.7019 15.2192 18.7726 15.2775 19.0292 15.4082C20.1388 15.9735 20.6664 16.7861 20.7563 18.0677C20.9099 20.2607 19.6497 21.829 17.4377 22.1975C16.5942 22.338 15.4317 22.3923 12.8436 22.4119C11.15 22.4247 11.1341 22.4239 10.9191 22.3145C10.7082 22.2072 10.5487 21.9794 10.4927 21.7058C10.4489 21.4915 10.4552 9.55138 10.4993 9.36262C10.6024 8.92079 10.851 8.72539 11.3691 8.67901C11.6098 8.65746 15.2371 8.67248 15.7494 8.69714ZM13.9501 17.6483C13.857 17.6758 13.7543 17.7745 13.7171 17.8721C13.6866 17.9524 13.6855 17.9822 13.7061 18.1667C13.8017 19.022 14.197 19.5805 14.8257 19.7483C15.0002 19.7949 15.4593 19.7949 15.6339 19.7483C16.2626 19.5805 16.6578 19.022 16.7535 18.1667C16.7741 17.9822 16.773 17.9524 16.7424 17.8721C16.7038 17.7704 16.6012 17.6752 16.4999 17.6469C16.415 17.6232 14.0308 17.6245 13.9501 17.6483Z" fill="#DC5648"/>
</svg>
